<?xml version="1.0" encoding="UTF-8"?>
<svg width="940px" height="368px" viewBox="0 0 940 368" version="1.1" xmlns="http://www.w3.org/2000/svg" xmlns:xlink="http://www.w3.org/1999/xlink">
    <!-- Generator: Sketch 51.2 (57519) - http://www.bohemiancoding.com/sketch -->
    <title>logo/bw</title>
    <desc>Created with Sketch.</desc>
    <defs>
        <path d="M40.5063444,0.481788338 L226.538624,0.481788338 C248.630014,0.481788338 266.538624,18.3903983 266.538624,40.4817883 L266.538624,226.514068 C266.538624,248.605458 248.630014,266.514068 226.538624,266.514068 L40.5063444,266.514068 C18.4149544,266.514068 0.506344384,248.605458 0.506344384,226.514068 L0.506344384,40.4817883 C0.506344384,18.3903983 18.4149544,0.481788338 40.5063444,0.481788338 Z" id="path-1"></path>
    </defs>
    <g id="logo/bw" stroke="none" stroke-width="1" fill="none" fill-rule="evenodd">
        <g id="logo" transform="translate(393.000000, 92.000000)" fill="#CBCBCB">
            <g id="text">
                <path d="M82.7660156,75.6 L82.7660156,108.8 C82.7660156,130.4 73.1660156,143.2 50.5660156,143.2 C41.9660156,143.2 32.1660156,142 24.5660156,140.4 L24.5660156,176.248413 C24.5660156,178.743207 22.7269906,180.856258 20.2560698,181.200566 L5.85606981,183.207124 C3.12107091,183.58823 0.594968437,181.680023 0.213862031,178.945024 C0.182002673,178.716386 0.166015625,178.485817 0.166015625,178.25497 L0.166015625,48.8 C0.166015625,46.0385763 2.40459188,43.8 5.16601562,43.8 L15.8196719,43.8 C18.0401603,43.8 19.9946265,45.2644204 20.6183589,47.3955062 L20.7660156,47.9 C21.306619,49.7470614 23.2422037,50.8061549 25.0892651,50.2655516 C25.2980726,50.2044372 25.5006978,50.1239018 25.6944865,50.0250004 C36.4385847,44.5416629 45.4624297,41.8 52.7660156,41.8 C72.3660156,41.8 82.7660156,53.4 82.7660156,75.6 Z M24.5660156,71.4 L24.5660156,119.8 C30.9660156,121.2 39.1660156,122.4 46.1660156,122.4 C54.9660156,122.4 58.3660156,118.2 58.3660156,109.4 L58.3660156,75 C58.3660156,67 55.3660156,62.6 46.3660156,62.6 C38.3660156,62.6 29.7660156,66.6 24.5660156,71.4 Z" id="Combined-Shape"></path>
                <path d="M119.366015,141.2 L104.966015,141.2 C102.204592,141.2 99.9660154,138.961424 99.9660154,136.2 L99.9660154,48.8 C99.9660154,46.0385763 102.204592,43.8 104.966015,43.8 L119.366015,43.8 C122.127439,43.8 124.366015,46.0385763 124.366015,48.8 L124.366015,136.2 C124.366015,138.961424 122.127439,141.2 119.366015,141.2 Z" id="Path"></path>
                <path d="M183.166015,143.2 C152.566015,143.2 141.166015,132 141.166015,105.8 L141.166015,79.2 C141.166015,53 152.566015,41.8 183.166015,41.8 C187.048033,41.8 193.423259,42.6799559 202.291693,44.4398677 C204.910694,44.9595945 206.659205,47.4454032 206.263125,50.0859337 L204.717922,60.3872253 C204.308292,63.1180926 201.762416,64.9998272 199.031549,64.5901971 C199.017728,64.588124 199.003916,64.585993 198.990113,64.5838041 C191.49127,63.3946014 186.416571,62.8 183.766015,62.8 C169.766015,62.8 165.566015,67 165.566015,79 L165.566015,106 C165.566015,118 169.766015,122.2 183.766015,122.2 C187.118227,122.2 192.180594,121.629948 198.953116,120.489845 C201.676224,120.031432 204.255357,121.867328 204.713772,124.590435 C204.718721,124.619836 204.723407,124.649281 204.72783,124.678766 L206.272073,134.973763 C206.665269,137.59507 204.944539,140.067713 202.349927,140.609784 C194.084578,142.336595 187.689941,143.2 183.166015,143.2 Z" id="Path"></path>
                <polygon id="Path" points="246.966015 141.2 222.566015 141.2 222.566015 4 246.966015 0.6"></polygon>
                <path d="M287.566015,141.2 L273.166015,141.2 C270.404591,141.2 268.166015,138.961424 268.166015,136.2 L268.166015,48.8 C268.166015,46.0385763 270.404591,43.8 273.166015,43.8 L287.566015,43.8 C290.327439,43.8 292.566015,46.0385763 292.566015,48.8 L292.566015,136.2 C292.566015,138.961424 290.327439,141.2 287.566015,141.2 Z" id="Path"></path>
                <path d="M390.766015,141.2 L376.366015,141.2 C373.604591,141.2 371.366015,138.961424 371.366015,136.2 L371.366015,73.2 C371.366015,68 369.166015,65.4 363.566015,65.4 C357.566015,65.4 346.966015,69 338.166015,73.6 L338.166015,136.2 C338.166015,138.961424 335.927438,141.2 333.166015,141.2 L318.766015,141.2 C316.004591,141.2 313.766015,138.961424 313.766015,136.2 L313.766015,48.8 C313.766015,46.0385763 316.004591,43.8 318.766015,43.8 L328.619671,43.8 C330.840159,43.8 332.794626,45.2644204 333.418358,47.3955062 L334.766015,52 C346.966015,46 362.366015,41.8 373.766015,41.8 C389.966015,41.8 395.766015,53.2 395.766015,70.6 L395.766015,136.2 C395.766015,138.961424 393.527438,141.2 390.766015,141.2 Z" id="Path"></path>
                <path d="M435.366014,141.2 L420.966014,141.2 C418.204591,141.2 415.966014,138.961424 415.966014,136.2 L415.966014,8.35158737 C415.966014,5.85679319 417.805039,3.74374242 420.27596,3.39943378 L434.67596,1.3928764 C437.410959,1.01177 439.937062,2.9199769 440.318168,5.65497581 C440.350027,5.88361355 440.366014,6.11418321 440.366014,6.34503 L440.366014,136.2 C440.366014,138.961424 438.127438,141.2 435.366014,141.2 Z" id="Path"></path>
                <path d="M474.454233,43.8 L489.985267,43.8 C492.74669,43.8 494.985267,46.0385763 494.985267,48.8 C494.985267,49.6979105 494.74347,50.5792525 494.285274,51.3514569 L471.695637,89.4221055 C470.754014,91.0090358 470.762978,92.9855903 471.718955,94.563915 L495.368606,133.609647 C496.799218,135.971598 496.044219,139.046077 493.682269,140.47669 C492.901084,140.949847 492.005222,141.2 491.091916,141.2 L476.002897,141.2 C474.243382,141.2 472.613373,140.275171 471.71082,138.764777 L445.271834,94.5199424 C444.342149,92.9641442 444.32717,91.0270612 445.232683,89.4570715 L470.123006,46.3019064 C471.015882,44.7538268 472.667119,43.8 474.454233,43.8 Z" id="Path"></path>
                <path d="M113.966015,30.8 L109.966015,30.8 C104.443168,30.8 99.9660154,26.3228475 99.9660154,20.8 L99.9660154,16.8 C99.9660154,11.2771525 104.443168,6.8 109.966015,6.8 L113.966015,6.8 C119.488863,6.8 123.966015,11.2771525 123.966015,16.8 L123.966015,20.8 C123.966015,26.3228475 119.488863,30.8 113.966015,30.8 Z" id="Path"></path>
                <path d="M282.166015,30.8 L278.166015,30.8 C272.643167,30.8 268.166015,26.3228475 268.166015,20.8 L268.166015,16.8 C268.166015,11.2771525 272.643167,6.8 278.166015,6.8 L282.166015,6.8 C287.688862,6.8 292.166015,11.2771525 292.166015,16.8 L292.166015,20.8 C292.166015,26.3228475 287.688862,30.8 282.166015,30.8 Z" id="Path"></path>
            </g>
        </g>
        <g id="logo" transform="translate(50.000000, 50.000000)">
            <g id="icon" transform="translate(0.031250, 0.500000)">
                <mask id="mask-2" fill="white">
                    <use xlink:href="#path-1"></use>
                </mask>
                <use id="Rectangle-2" fill="#F0F0F0" xlink:href="#path-1"></use>
                <g id="logo" mask="url(#mask-2)">
                    <g transform="translate(0.506344, -92.081341)">
                        <path d="M13.1051445,97.3358938 L274.280925,1.41735474 C284.649488,-2.3905688 296.141801,2.92788022 299.949725,13.2964431 C300.760734,15.504734 301.175781,17.8387924 301.175781,20.1912986 L301.175781,210.790383 C301.175781,219.177108 295.943232,226.673064 288.070636,229.564327 L12.102685,330.915389 C7.43683167,332.628954 2.26529086,330.235652 0.551725266,325.569799 C0.186770989,324.576068 6.71139693e-15,323.525742 0,322.467114 L1.0658141e-14,116.109838 C2.18215497e-15,107.723112 5.232549,100.227157 13.1051445,97.3358938 Z" id="Rectangle" stroke="none" fill="#727272"></path>
                        <path d="M127.933075,362.018433 C127.933075,365.77365 127.139539,369.486482 125.60447,372.913612 C119.58723,386.347452 103.819013,392.359793 90.3851727,386.342553 L15.7575455,352.915595 C6.17046392,348.621381 0,339.09635 0,328.591475 C-2.25615343e-12,329.672324 0.248897781,331.072027 0.735249061,332.396308 C3.0188086,338.614193 9.53966052,329.018043 15.7575455,326.734484 L127.933075,271.80633 L127.933075,362.018433 Z" id="Combined-Shape" stroke="none" fill="#CBCBCB"></path>
                        <path d="M14.5194228,337.459329 C12.8923518,346.658671 17.3324044,353.080423 22.8475323,356.088187 L16.9218119,353.448577 C6.31875668,349.020718 0.0579503716,339.654231 0.000372378558,328.722376 L0,120.757478 C0,109.76875 6.74410116,99.9064207 16.9843293,95.9202105 L18.8162448,95.2071014 L22.8475323,93.7265843 C17.2647089,96.7552701 12.8923518,102.679768 14.5194228,111.879109 C15.9473898,116.891374 18.9553649,120.474027 23.543348,122.627067 L110.228834,153.524669 C120.844609,157.308485 127.933075,167.360335 127.933075,178.630293 L127.933075,288.344556 L23.5076262,326.728178 C18.9397483,328.883034 15.9436805,332.460084 14.5194228,337.459329 Z" id="Combined-Shape" stroke="none" fill="#9B9B9B"></path>
                        <path d="M116.478369,152.019521 L256.474506,100.214335 C264.243888,97.3392968 272.872897,101.306946 275.747935,109.076329 C276.364556,110.742658 276.680224,112.505287 276.680224,114.282047 L276.680224,219.75799 C276.680224,228.145097 271.447206,235.641308 263.574102,238.532293 L103.419326,297.340733 L103.419326,170.77647 C103.419326,162.407739 108.629777,154.923872 116.478369,152.019521 Z" id="Rectangle-Copy-4" stroke="none" fill="#000000" opacity="0.5"></path>
                        <path d="M140.930002,181.907919 L276.335639,131.318984 C286.682765,127.453192 298.204613,132.707351 302.070405,143.054477 C302.906878,145.293369 303.335276,147.664067 303.335276,150.054114 L303.335276,248.336074 C303.335276,256.681887 298.152907,264.150321 290.334912,267.071204 L127.929639,327.74748 L127.929639,200.643049 C127.929639,192.297236 133.112008,184.828802 140.930002,181.907919 Z" id="Rectangle-Copy-6" stroke="none" fill="#BCBCBC" opacity="0.5"></path>
                        <path d="M170.238386,279.997861 L260.48188,246.855339 C264.811807,245.265144 267.689709,241.142368 267.689709,236.529669 L267.689709,173.98558 L176.135701,207.609397 C172.593033,208.910465 170.238386,212.283645 170.238386,216.057671 L170.238386,279.997861 Z" id="Rectangle-Copy-7" stroke="#FFFFFF" stroke-width="18" fill="#FFFFFF"></path>
                    </g>
                </g>
            </g>
        </g>
    </g>
</svg>