<svg height="491" viewBox="0 0 406 491" width="406" xmlns="http://www.w3.org/2000/svg"><g fill="none" fill-rule="evenodd" transform="translate(50.537594 51.418659)"><path d="m13.1051445 97.3358938 261.1757805-95.91853906c10.368563-3.80792354 21.860876 1.51052548 25.6688 11.87908836.811009 2.2082909 1.226056 4.5423493 1.226056 6.8948555v190.5990844c0 8.386725-5.232549 15.882681-13.105145 18.773944l-275.967951 101.351062c-4.66585333 1.713565-9.83739414-.679737-11.55095973-5.34559-.36495428-.993731-.55172527-2.044057-.55172527-3.102685v-206.357276c0-8.386726 5.232549-15.882681 13.1051445-18.7739442z" fill="#9d6bff"/><path d="m127.933075 362.018433c0 3.755217-.793536 7.468049-2.328605 10.895179-6.01724 13.43384-21.785457 19.446181-35.2192973 13.428941l-74.6276272-33.426958c-9.58708158-4.294214-15.7575455-13.819245-15.7575455-24.32412 0 1.080849.24889778 2.480552.73524906 3.804833 2.28355954 6.217885 8.80441146-3.378265 15.02229644-5.661824l112.1755295-54.928154z" fill="#00d2de"/><path d="m14.5194228 337.459329c-1.627071 9.199342 2.8129816 15.621094 8.3281095 18.628858l-5.9257204-2.63961c-10.60305522-4.427859-16.86386153-13.794346-16.92143952-24.726201l-.00037238-207.964898c0-10.988728 6.74410116-20.8510573 16.9843293-24.8372675l1.8319155-.7131091 4.0312875-1.4805171c-5.5828234 3.0286858-9.9551805 8.9531837-8.3281095 18.1525247 1.427967 5.012265 4.4359421 8.594918 9.0239252 10.747958l86.685486 30.897602c10.615775 3.783816 17.704241 13.835666 17.704241 25.105624v109.714263l-104.4254488 38.383622c-4.5678779 2.154856-7.5639457 5.731906-8.9882034 10.731151z" fill="#362baf"/><path d="m116.478369 152.019521 139.996137-51.805186c7.769382-2.8750382 16.398391 1.092611 19.273429 8.861994.616621 1.666329.932289 3.428958.932289 5.205718v105.475943c0 8.387107-5.233018 15.883318-13.106122 18.774303l-160.154776 58.80844v-126.564263c0-8.368731 5.210451-15.852598 13.059043-18.756949z" fill="#000" opacity=".5"/><path d="m140.930002 181.907919 135.405637-50.588935c10.347126-3.865792 21.868974 1.388367 25.734766 11.735493.836473 2.238892 1.264871 4.60959 1.264871 6.999637v98.28196c0 8.345813-5.182369 15.814247-13.000364 18.73513l-162.405273 60.676276v-127.104431c0-8.345813 5.182369-15.814247 13.000363-18.73513z" fill="#e26bff" opacity=".5"/><path d="m170.238386 279.997861 90.243494-33.142522c4.329927-1.590195 7.207829-5.712971 7.207829-10.32567v-62.544089l-91.554008 33.623817c-3.542668 1.301068-5.897315 4.674248-5.897315 8.448274z" fill="#fff" stroke="#fff" stroke-width="18"/></g></svg>