<?xml version="1.0" encoding="UTF-8"?>
<svg width="302px" height="390px" viewBox="0 0 302 390" version="1.1" xmlns="http://www.w3.org/2000/svg" xmlns:xlink="http://www.w3.org/1999/xlink">
    <!-- Generator: Sketch 51.2 (57519) - http://www.bohemiancoding.com/sketch -->
    <title>logo/head-graphic</title>
    <desc>Created with Sketch.</desc>
    <defs></defs>
    <g id="logo/head-graphic" stroke="none" stroke-width="1" fill="none" fill-rule="evenodd">
        <g id="Group" transform="translate(0.031250, 0.500000)">
            <path d="M13.6114889,97.2545532 L274.78727,1.33601419 C285.155833,-2.47190934 296.648146,2.84653968 300.456069,13.2151026 C301.267079,15.4233935 301.682125,17.7574519 301.682125,20.109958 L301.682125,210.709042 C301.682125,219.095768 296.449576,226.591723 288.576981,229.482986 L12.6090294,330.834048 C7.94317605,332.547614 2.77163524,330.154312 1.05806965,325.488458 C0.693115373,324.494727 0.506344384,323.444401 0.506344384,322.385773 L0.506344384,116.028497 C0.506344384,107.641772 5.73889339,100.145816 13.6114889,97.2545532 Z" id="Rectangle" fill="#9D6BFF"></path>
            <path d="M128.439419,361.937093 C128.439419,365.692309 127.645883,369.405141 126.110815,372.832271 C120.093574,386.266111 104.325357,392.278453 90.8915171,386.261212 L16.2638899,352.834254 C6.67680831,348.54004 0.506344384,339.01501 0.506344384,328.510135 C0.506344384,329.590983 0.755242165,330.990686 1.24159345,332.314968 C3.52515298,338.532853 10.0460049,328.936703 16.2638899,326.653143 L128.439419,271.724989 L128.439419,361.937093 Z" id="Combined-Shape" fill="#00D2DE"></path>
            <path d="M15.0257672,337.377989 C13.3986961,346.57733 17.8387487,352.999082 23.3538767,356.006847 L17.4281562,353.367237 C6.82510106,348.939377 0.564294756,339.57289 0.506716763,328.641035 L0.506344384,120.676137 C0.506344384,109.687409 7.25044554,99.8250802 17.4906737,95.83887 L19.3225892,95.1257608 L23.3538767,93.6452438 C17.7710533,96.6739296 13.3986961,102.598427 15.0257672,111.797769 C16.4537342,116.810034 19.4617093,120.392687 24.0496924,122.545727 L110.735178,153.443328 C121.350953,157.227145 128.439419,167.278994 128.439419,178.548952 L128.439419,288.263216 L24.0139706,326.646838 C19.4460926,328.801693 16.4500248,332.378744 15.0257672,337.377989 Z" id="Combined-Shape" fill="#362BAF"></path>
            <path d="M116.984713,151.938181 L256.98085,100.132995 C264.750233,97.2579562 273.379241,101.225606 276.25428,108.994988 C276.8709,110.661318 277.186568,112.423947 277.186568,114.200706 L277.186568,219.676649 C277.186568,228.063756 271.95355,235.559968 264.080446,238.450952 L103.925671,297.259393 L103.925671,170.695129 C103.925671,162.326399 109.136121,154.842531 116.984713,151.938181 Z" id="Rectangle-Copy-4" fill="#000000" opacity="0.5"></path>
            <path d="M141.277387,181.826579 L275.027377,131.237644 C285.247986,127.371851 296.628952,132.62601 300.447476,142.973137 C301.273722,145.212029 301.696881,147.582726 301.696881,149.972773 L301.696881,248.254734 C301.696881,256.600546 296.577878,264.06898 288.855477,266.989863 L128.435983,327.66614 L128.435983,200.561709 C128.435983,192.215896 133.554986,184.747462 141.277387,181.826579 Z" id="Rectangle-Copy-6" fill="#E26BFF" opacity="0.5"></path>
            <path d="M170.74473,262.91652 L260.988224,229.773998 C265.318152,228.183803 268.196054,224.061028 268.196054,219.448329 L268.196054,173.904239 L176.642045,207.528056 C173.099377,208.829125 170.74473,212.202305 170.74473,215.976331 L170.74473,262.91652 Z" id="Rectangle-Copy-7" stroke="#FFFFFF" stroke-width="18" fill="#FFFFFF"></path>
        </g>
    </g>
</svg>