<?xml version="1.0" encoding="UTF-8"?>
<svg width="302px" height="390px" viewBox="0 0 302 390" version="1.1" xmlns="http://www.w3.org/2000/svg" xmlns:xlink="http://www.w3.org/1999/xlink">
    <!-- Generator: Sketch 51.2 (57519) - http://www.bohemiancoding.com/sketch -->
    <title>logo/head-graphic-lines</title>
    <desc>Created with Sketch.</desc>
    <defs></defs>
    <g id="logo/head-graphic-lines" stroke="none" stroke-width="1" fill="none" fill-rule="evenodd">
        <g id="logo" stroke="#000000" stroke-width="5">
            <path d="M13.6427389,97.7545532 L274.81852,1.83601419 C285.187083,-1.97190934 296.679396,3.34653968 300.487319,13.7151026 C301.298329,15.9233935 301.713375,18.2574519 301.713375,20.609958 L301.713375,211.209042 C301.713375,219.595768 297.547075,226.937513 289.674479,229.828776 L26.0820313,326.447917 C22.7019743,328.119242 18.7303608,328.849382 15.9742839,335.512044 C13.2182069,342.174707 14.6171875,349.793945 21.986067,355.893406 C20.0719401,355.27832 13.1509343,352.361566 7.91733695,347.44774 C-1.02657682,338.002638 0.853312238,328.421949 0.537594384,322.885773 L0.537594384,116.528497 C0.537594384,108.141772 5.77014339,100.645816 13.6427389,97.7545532 Z" id="Rectangle" stroke-linecap="round" stroke-linejoin="round"></path>
            <path d="M128.470669,362.437093 C128.470669,366.192309 127.677133,369.905141 126.142065,373.332271 C120.124824,386.766111 104.356607,392.778453 90.9227671,386.761212 L21.534178,355.675016 C12.739502,348.603027 11.5358887,333.810547 23.2186279,327.453964 L128.470669,288.781416 L128.470669,362.437093 Z" id="Combined-Shape"></path>
            <path d="M15.0570172,337.877989 C13.4299461,347.07733 17.8699987,353.499082 23.3851267,356.506847 L17.4594062,353.867237 C6.85635106,349.439377 0.595544756,340.07289 0.537966763,329.141035 L0.537594384,121.176137 C0.537594384,110.187409 2.49937632,101.073946 17.5219237,96.33887 L23.3851267,94.1452438 C17.8023033,97.1739296 13.4299461,103.098427 15.0570172,112.297769 C16.4849842,117.310034 19.4929593,120.892687 24.0809424,123.045727 L110.766428,153.943328 C121.382203,157.727145 128.470669,167.778994 128.470669,179.048952 L128.470669,288.763216 L24.0452206,327.146838 C19.4773426,329.301693 16.4812748,332.878744 15.0570172,337.877989 Z" id="Combined-Shape"></path>
            <path d="M117.015963,152.438181 L257.0121,100.632995 C264.781483,97.7579562 273.410491,101.725606 276.28553,109.494988 C276.90215,111.161318 277.217818,112.923947 277.217818,114.700706 L277.217818,220.176649 C277.217818,228.563756 271.9848,236.059968 264.111696,238.950952 L103.956921,297.759393 L103.956921,171.195129 C103.956921,162.826399 109.167371,155.342531 117.015963,152.438181 Z" id="Rectangle-Copy-4"></path>
            <path d="M141.308637,182.326579 L275.058627,131.737644 C285.279236,127.871851 296.660202,133.12601 300.478726,143.473137 C301.304972,145.712029 301.728131,148.082726 301.728131,150.472773 L301.728131,248.754734 C301.728131,257.100546 296.609128,264.56898 288.886727,267.489863 L128.467233,328.16614 L128.467233,201.061709 C128.467233,192.715896 133.586236,185.247462 141.308637,182.326579 Z" id="Rectangle-Copy-6"></path>
            <path d="M173.57061,199.579781 L277.227304,161.511173 L277.227304,219.948329 C277.227304,228.335054 272.037331,236.061083 264.164736,238.952346 L161.77598,276.542453 L161.77598,216.476331 C161.77598,208.928278 166.485275,202.181918 173.57061,199.579781 Z" id="Rectangle-Copy-7"></path>
        </g>
    </g>
</svg>