<?xml version="1.0" encoding="UTF-8"?>
<svg width="368px" height="368px" viewBox="0 0 368 368" version="1.1" xmlns="http://www.w3.org/2000/svg" xmlns:xlink="http://www.w3.org/1999/xlink">
    <!-- Generator: Sketch 51.2 (57519) - http://www.bohemiancoding.com/sketch -->
    <title>logo/head/default</title>
    <desc>Created with Sketch.</desc>
    <defs>
        <rect id="path-1" x="0.506344384" y="0.481788338" width="266.032279" height="266.032279" rx="40"></rect>
    </defs>
    <g id="logo/head/default" stroke="none" stroke-width="1" fill="none" fill-rule="evenodd">
        <g id="logo" transform="translate(50.000000, 50.000000)">
            <g id="icon" transform="translate(0.031250, 0.500000)">
                <mask id="mask-2" fill="white">
                    <use xlink:href="#path-1"></use>
                </mask>
                <use id="Rectangle-2" fill="#EAF1F6" xlink:href="#path-1"></use>
                <g id="logo" mask="url(#mask-2)">
                    <g transform="translate(0.506344, -92.081341)">
                        <path d="M13.1051445,97.3358938 L274.280925,1.41735474 C284.649488,-2.3905688 296.141801,2.92788022 299.949725,13.2964431 C300.760734,15.504734 301.175781,17.8387924 301.175781,20.1912986 L301.175781,210.790383 C301.175781,219.177108 295.943232,226.673064 288.070636,229.564327 L12.102685,330.915389 C7.43683167,332.628954 2.26529086,330.235652 0.551725266,325.569799 C0.186770989,324.576068 -1.10521715e-14,323.525742 -1.77635684e-14,322.467114 L-7.10542736e-15,116.109838 C-1.55814134e-14,107.723112 5.232549,100.227157 13.1051445,97.3358938 Z" id="Rectangle" stroke="none" fill="#9D6BFF"></path>
                        <path d="M127.933075,362.018433 C127.933075,365.77365 127.139539,369.486482 125.60447,372.913612 C119.58723,386.347452 103.819013,392.359793 90.3851727,386.342553 L15.7575455,352.915595 C6.17046392,348.621381 0,339.09635 0,328.591475 C-2.25615343e-12,329.672324 0.248897781,331.072027 0.735249061,332.396308 C3.0188086,338.614193 9.53966052,329.018043 15.7575455,326.734484 L127.933075,271.80633 L127.933075,362.018433 Z" id="Combined-Shape" stroke="none" fill="#00D2DE"></path>
                        <path d="M14.5194228,337.459329 C12.8923518,346.658671 17.3324044,353.080423 22.8475323,356.088187 L16.9218119,353.448577 C6.31875668,349.020718 0.0579503716,339.654231 0.000372378558,328.722376 L0,120.757478 C0,109.76875 6.74410116,99.9064207 16.9843293,95.9202105 L18.8162448,95.2071014 L22.8475323,93.7265843 C17.2647089,96.7552701 12.8923518,102.679768 14.5194228,111.879109 C15.9473898,116.891374 18.9553649,120.474027 23.543348,122.627067 L110.228834,153.524669 C120.844609,157.308485 127.933075,167.360335 127.933075,178.630293 L127.933075,288.344556 L23.5076262,326.728178 C18.9397483,328.883034 15.9436805,332.460084 14.5194228,337.459329 Z" id="Combined-Shape" stroke="none" fill="#362BAF"></path>
                        <path d="M116.478369,152.019521 L256.474506,100.214335 C264.243888,97.3392968 272.872897,101.306946 275.747935,109.076329 C276.364556,110.742658 276.680224,112.505287 276.680224,114.282047 L276.680224,219.75799 C276.680224,228.145097 271.447206,235.641308 263.574102,238.532293 L103.419326,297.340733 L103.419326,170.77647 C103.419326,162.407739 108.629777,154.923872 116.478369,152.019521 Z" id="Rectangle-Copy-4" stroke="none" fill="#000000" opacity="0.5"></path>
                        <path d="M140.930002,181.907919 L276.335639,131.318984 C286.682765,127.453192 298.204613,132.707351 302.070405,143.054477 C302.906878,145.293369 303.335276,147.664067 303.335276,150.054114 L303.335276,248.336074 C303.335276,256.681887 298.152907,264.150321 290.334912,267.071204 L127.929639,327.74748 L127.929639,200.643049 C127.929639,192.297236 133.112008,184.828802 140.930002,181.907919 Z" id="Rectangle-Copy-6" stroke="none" fill="#E26BFF" opacity="0.5"></path>
                        <path d="M170.238386,279.997861 L260.48188,246.855339 C264.811807,245.265144 267.689709,241.142368 267.689709,236.529669 L267.689709,173.98558 L176.135701,207.609397 C172.593033,208.910465 170.238386,212.283645 170.238386,216.057671 L170.238386,279.997861 Z" id="Rectangle-Copy-7" stroke="#FFFFFF" stroke-width="18" fill="#FFFFFF"></path>
                    </g>
                </g>
            </g>
        </g>
    </g>
</svg>