<?xml version="1.0" encoding="UTF-8"?>
<svg width="504px" height="183px" viewBox="0 0 504 183" version="1.1" xmlns="http://www.w3.org/2000/svg" xmlns:xlink="http://www.w3.org/1999/xlink">
    <!-- Generator: Sketch 51.2 (57519) - http://www.bohemiancoding.com/sketch -->
    <title>logo/text-color</title>
    <desc>Created with Sketch.</desc>
    <defs></defs>
    <g id="logo/text-color" stroke="none" stroke-width="1" fill="none" fill-rule="evenodd">
        <g id="logo" transform="translate(0.641620, 0.000000)" fill="#362BAF">
            <path d="M82.7660156,74.6 L82.7660156,107.8 C82.7660156,129.4 73.1660156,142.2 50.5660156,142.2 C41.9660156,142.2 32.1660156,141 24.5660156,139.4 L24.5660156,175.248413 C24.5660156,177.743207 22.7269906,179.856258 20.2560698,180.200566 L5.85606981,182.207124 C3.12107091,182.58823 0.594968437,180.680023 0.213862031,177.945024 C0.182002673,177.716386 0.166015625,177.485817 0.166015625,177.25497 L0.166015625,47.8 C0.166015625,45.0385763 2.40459188,42.8 5.16601562,42.8 L15.8196719,42.8 C18.0401603,42.8 19.9946265,44.2644204 20.6183589,46.3955062 L20.7660156,46.9 C21.306619,48.7470614 23.2422037,49.8061549 25.0892651,49.2655516 C25.2980726,49.2044372 25.5006978,49.1239018 25.6944865,49.0250004 C36.4385847,43.5416629 45.4624297,40.8 52.7660156,40.8 C72.3660156,40.8 82.7660156,52.4 82.7660156,74.6 Z M24.5660156,70.4 L24.5660156,118.8 C30.9660156,120.2 39.1660156,121.4 46.1660156,121.4 C54.9660156,121.4 58.3660156,117.2 58.3660156,108.4 L58.3660156,74 C58.3660156,66 55.3660156,61.6 46.3660156,61.6 C38.3660156,61.6 29.7660156,65.6 24.5660156,70.4 Z" id="Combined-Shape"></path>
            <path d="M122.166016,140.2 L107.766016,140.2 C105.004592,140.2 102.766016,137.961424 102.766016,135.2 L102.766016,47.8 C102.766016,45.0385763 105.004592,42.8 107.766016,42.8 L122.166016,42.8 C124.927439,42.8 127.166016,45.0385763 127.166016,47.8 L127.166016,135.2 C127.166016,137.961424 124.927439,140.2 122.166016,140.2 Z" id="Path"></path>
            <path d="M255.094758,140.944415 L240.694758,140.944415 C237.933334,140.944415 235.694758,138.705839 235.694758,135.944415 L235.694758,8.09600219 C235.694758,5.60120801 237.533783,3.48815723 240.004704,3.1438486 L254.404704,1.13729122 C257.139703,0.756184815 259.665805,2.66439172 260.046912,5.39939063 C260.078771,5.62802837 260.094758,5.85859803 260.094758,6.08944481 L260.094758,135.944415 C260.094758,138.705839 257.856182,140.944415 255.094758,140.944415 Z" id="Path"></path>
            <path d="M299.494758,140.944415 L285.094758,140.944415 C282.333334,140.944415 280.094758,138.705839 280.094758,135.944415 L280.094758,48.5444148 C280.094758,45.7829911 282.333334,43.5444148 285.094758,43.5444148 L299.494758,43.5444148 C302.256182,43.5444148 304.494758,45.7829911 304.494758,48.5444148 L304.494758,135.944415 C304.494758,138.705839 302.256182,140.944415 299.494758,140.944415 Z" id="Path"></path>
            <path d="M401.494758,140.827793 L387.094758,140.827793 C384.333334,140.827793 382.094758,138.589216 382.094758,135.827793 L382.094758,72.8277926 C382.094758,67.6277926 379.894758,65.0277926 374.294758,65.0277926 C368.294758,65.0277926 357.694758,68.6277926 348.894758,73.2277926 L348.894758,135.827793 C348.894758,138.589216 346.656182,140.827793 343.894758,140.827793 L329.494758,140.827793 C326.733334,140.827793 324.494758,138.589216 324.494758,135.827793 L324.494758,48.4277926 C324.494758,45.6663688 326.733334,43.4277926 329.494758,43.4277926 L339.348414,43.4277926 C341.568903,43.4277926 343.523369,44.892213 344.147101,47.0232988 L345.494758,51.6277926 C357.694758,45.6277926 373.094758,41.4277926 384.494758,41.4277926 C400.694758,41.4277926 406.494758,52.8277926 406.494758,70.2277926 L406.494758,135.827793 C406.494758,138.589216 404.256182,140.827793 401.494758,140.827793 Z" id="Path"></path>
            <path d="M445.894758,140.944415 L431.494758,140.944415 C428.733334,140.944415 426.494758,138.705839 426.494758,135.944415 L426.494758,8.09600219 C426.494758,5.60120801 428.333783,3.48815723 430.804704,3.1438486 L445.204704,1.13729122 C447.939703,0.756184815 450.465805,2.66439172 450.846912,5.39939063 C450.878771,5.62802837 450.894758,5.85859803 450.894758,6.08944481 L450.894758,135.944415 C450.894758,138.705839 448.656182,140.944415 445.894758,140.944415 Z" id="Path"></path>
            <path d="M166.166016,140.2 L151.766016,140.2 C149.004592,140.2 146.766016,137.961424 146.766016,135.2 L146.766016,7.35158737 C146.766016,4.85679319 148.605041,2.74374242 151.075961,2.39943378 L165.475961,0.392876403 C168.21096,0.0117699981 170.737063,1.9199769 171.118169,4.65497581 C171.150029,4.88361355 171.166016,5.11418321 171.166016,5.34503 L171.166016,135.2 C171.166016,137.961424 168.927439,140.2 166.166016,140.2 Z" id="Path-Copy"></path>
            <path d="M480.785082,43.5444148 L496.316115,43.5444148 C499.077539,43.5444148 501.316115,45.7829911 501.316115,48.5444148 C501.316115,49.4423253 501.074319,50.3236673 500.616123,51.0958718 L478.026485,89.1665203 C477.084862,90.7534506 477.093826,92.7300051 478.049803,94.3083298 L501.699454,133.354062 C503.130066,135.716013 502.375068,138.790492 500.013117,140.221104 C499.231932,140.694261 498.336071,140.944415 497.422765,140.944415 L482.333745,140.944415 C480.57423,140.944415 478.944221,140.019586 478.041669,138.509192 L451.602682,94.2643572 C450.672998,92.708559 450.658018,90.771476 451.563531,89.2014863 L476.453855,46.0463212 C477.34673,44.4982416 478.997967,43.5444148 480.785082,43.5444148 Z" id="Path"></path>
            <path d="M201.056339,42.8 L216.587373,42.8 C219.348796,42.8 221.587373,45.0385763 221.587373,47.8 C221.587373,48.6979105 221.345576,49.5792525 220.88738,50.3514569 L198.297742,88.4221055 C197.35612,90.0090358 197.365084,91.9855903 198.321061,93.563915 L221.970712,132.609647 C223.401324,134.971598 222.646325,138.046077 220.284375,139.47669 C219.503189,139.949847 218.607328,140.2 217.694022,140.2 L202.605002,140.2 C200.845488,140.2 199.215479,139.275171 198.312926,137.764777 L171.87394,93.5199424 C170.944255,91.9641442 170.929276,90.0270612 171.834789,88.4570715 L196.725112,45.3019064 C197.617988,43.7538268 199.269225,42.8 201.056339,42.8 Z" id="Path-Copy-2"></path>
            <path d="M116.766016,29.8 L112.766016,29.8 C107.243168,29.8 102.766016,25.3228475 102.766016,19.8 L102.766016,15.8 C102.766016,10.2771525 107.243168,5.8 112.766016,5.8 L116.766016,5.8 C122.288863,5.8 126.766016,10.2771525 126.766016,15.8 L126.766016,19.8 C126.766016,25.3228475 122.288863,29.8 116.766016,29.8 Z" id="Path"></path>
            <path d="M294.094758,30.5444148 L290.094758,30.5444148 C284.571911,30.5444148 280.094758,26.0672623 280.094758,20.5444148 L280.094758,16.5444148 C280.094758,11.0215673 284.571911,6.54441482 290.094758,6.54441482 L294.094758,6.54441482 C299.617606,6.54441482 304.094758,11.0215673 304.094758,16.5444148 L304.094758,20.5444148 C304.094758,26.0672623 299.617606,30.5444148 294.094758,30.5444148 Z" id="Path"></path>
        </g>
    </g>
</svg>