<?xml version="1.0" encoding="UTF-8"?>
<svg width="50px" height="51px" viewBox="0 0 50 51" version="1.1" xmlns="http://www.w3.org/2000/svg" xmlns:xlink="http://www.w3.org/1999/xlink">
    <!-- Generator: Sketch 51.2 (57519) - http://www.bohemiancoding.com/sketch -->
    <title>icon/signin</title>
    <desc>Created with Sketch.</desc>
    <defs></defs>
    <g id="⟶-Home" stroke="none" stroke-width="1" fill="none" fill-rule="evenodd">
        <g id="icon/signin" fill="#000000">
            <path d="M21.6308594,30.6210938 L25.2441406,27.0078125 L1.7578125,27.0078125 C1.26952881,27.0078125 0.854493896,26.8369158 0.512695312,26.4951172 C0.170896729,26.1533186 0,25.7382837 0,25.25 C0,24.7617163 0.170896729,24.3466814 0.512695312,24.0048828 C0.854493896,23.6630842 1.26952881,23.4921875 1.7578125,23.4921875 L25.2441406,23.4921875 L21.6308594,19.8789062 C21.2727847,19.5208315 21.09375,19.0976587 21.09375,18.609375 C21.09375,18.1210913 21.2646467,17.7060564 21.6064453,17.3642578 C21.9482439,17.0224592 22.3632788,16.8515625 22.8515625,16.8515625 C23.3398462,16.8515625 23.763019,17.0305972 24.1210938,17.3886719 L30.7617188,23.9804688 C31.0872412,24.3385435 31.25,24.7617163 31.25,25.25 C31.25,25.7382837 31.0872412,26.1614565 30.7617188,26.5195312 L24.1210938,33.1113281 C23.763019,33.4694028 23.3398462,33.6484375 22.8515625,33.6484375 C22.3632788,33.6484375 21.9482439,33.4775408 21.6064453,33.1357422 C21.2646467,32.7939436 21.09375,32.3789087 21.09375,31.890625 C21.09375,31.4023413 21.2727847,30.9791685 21.6308594,30.6210938 Z M48.046875,15.5332031 C49.3489648,18.6256665 50,21.8645664 50,25.25 C50,28.6354336 49.3489648,31.8743335 48.046875,34.9667969 C46.7773374,37.9616035 44.9869907,40.6145718 42.6757812,42.9257812 C40.3645718,45.2369907 37.7116035,47.0273374 34.7167969,48.296875 C31.6243335,49.5989648 28.3854336,50.25 25,50.25 C20.9960737,50.25 17.2363457,49.3548267 13.7207031,47.5644531 C10.3027173,45.8391841 7.42188672,43.4466299 5.078125,40.3867188 C4.78515479,39.9960918 4.67122363,39.5566431 4.73632812,39.0683594 C4.80143262,38.5800757 5.02929492,38.1894546 5.41992187,37.8964844 C5.81054883,37.6035142 6.24999756,37.489583 6.73828125,37.5546875 C7.22656494,37.619792 7.61718604,37.8476543 7.91015625,38.2382812 C9.89584326,40.8750132 12.353501,42.9420498 15.2832031,44.4394531 C18.3431143,45.9694087 21.5820142,46.734375 25,46.734375 C27.9297021,46.734375 30.7128774,46.1647192 33.3496094,45.0253906 C35.9212368,43.9511665 38.1998599,42.4212339 40.1855469,40.4355469 C42.1712339,38.4498599 43.7174424,36.1712368 44.8242188,33.5996094 C45.9309951,30.9628774 46.484375,28.1797021 46.484375,25.25 C46.484375,22.3202979 45.9147192,19.5371226 44.7753906,16.9003906 C43.7011665,14.3287632 42.1712339,12.0501401 40.1855469,10.0644531 C38.1998599,8.07876611 35.9212368,6.5488335 33.3496094,5.47460938 C30.7128774,4.33528076 27.9297021,3.765625 25,3.765625 C21.5820142,3.765625 18.3431143,4.53059131 15.2832031,6.06054688 C12.353501,7.5579502 9.89584326,9.62498682 7.91015625,12.2617188 C7.61718604,12.6523457 7.22656494,12.880208 6.73828125,12.9453125 C6.24999756,13.010417 5.81054883,12.8964858 5.41992187,12.6035156 C5.02929492,12.3105454 4.80143262,11.9199243 4.73632812,11.4316406 C4.67122363,10.9433569 4.78515479,10.5039082 5.078125,10.1132812 C7.42188672,7.05337012 10.3027173,4.66081592 13.7207031,2.93554688 C17.2363457,1.14517334 20.9960737,0.25 25,0.25 C28.3854336,0.25 31.6243335,0.901035156 34.7167969,2.203125 C37.7116035,3.4726626 40.3645718,5.26300928 42.6757812,7.57421875 C44.9869907,9.88542822 46.7773374,12.5383965 48.046875,15.5332031 Z"></path>
        </g>
    </g>
</svg>