<?xml version="1.0" encoding="UTF-8"?>
<svg width="20px" height="21px" viewBox="0 0 20 21" version="1.1" xmlns="http://www.w3.org/2000/svg" xmlns:xlink="http://www.w3.org/1999/xlink">
    <!-- Generator: Sketch 51.2 (57519) - http://www.bohemiancoding.com/sketch -->
    <title>icon/signout</title>
    <desc>Created with Sketch.</desc>
    <defs></defs>
    <g id="ASSETS" stroke="none" stroke-width="1" fill="none" fill-rule="evenodd">
        <g id="icon/signout" fill="#4D4D4D">
            <path d="M15.0976562,17.4335938 C15.253907,17.3164057 15.4296865,17.2740884 15.625,17.3066406 C15.8203135,17.3391929 15.9733067,17.433593 16.0839844,17.5898438 C16.194662,17.7460945 16.2369793,17.9186188 16.2109375,18.1074219 C16.1848957,18.2962249 16.0937508,18.4492182 15.9375,18.5664062 C14.1796787,19.8554752 12.2070422,20.5 10.0195312,20.5 C8.66535781,20.5 7.36979785,20.2395859 6.1328125,19.71875 C4.93488984,19.210935 3.87370254,18.4947963 2.94921875,17.5703125 C2.02473496,16.6458287 1.30859629,15.5846414 0.80078125,14.3867188 C0.279945312,13.1497334 0.01953125,11.8541734 0.01953125,10.5 C0.01953125,9.14582656 0.279945312,7.8502666 0.80078125,6.61328125 C1.30859629,5.41535859 2.02473496,4.35417129 2.94921875,3.4296875 C3.87370254,2.50520371 4.93488984,1.78906504 6.1328125,1.28125 C7.36979785,0.760414063 8.66535781,0.5 10.0195312,0.5 C12.2070422,0.5 14.1796787,1.1445248 15.9375,2.43359375 C16.0937508,2.55078184 16.1848957,2.7037751 16.2109375,2.89257812 C16.2369793,3.08138115 16.1914068,3.25390547 16.0742188,3.41015625 C15.9570307,3.56640703 15.8040374,3.66080713 15.6152344,3.69335938 C15.4264313,3.72591162 15.253907,3.68359434 15.0976562,3.56640625 C13.587232,2.45962988 11.8945406,1.90625 10.0195312,1.90625 C8.84765039,1.90625 7.73438027,2.1341123 6.6796875,2.58984375 C5.65103652,3.0195334 4.7395873,3.63150645 3.9453125,4.42578125 C3.1510377,5.22005605 2.5325543,6.13150527 2.08984375,7.16015625 C1.6471332,8.21484902 1.42578125,9.32811914 1.42578125,10.5 C1.42578125,11.6718809 1.65364355,12.785151 2.109375,13.8398438 C2.53906465,14.8684947 3.1510377,15.7799439 3.9453125,16.5742188 C4.7395873,17.3684936 5.65103652,17.986977 6.6796875,18.4296875 C7.73438027,18.872398 8.84765039,19.09375 10.0195312,19.09375 C11.8945406,19.09375 13.587232,18.5403701 15.0976562,17.4335938 Z M19.8242188,9.9921875 C19.9544277,10.1354174 20.0195312,10.3046865 20.0195312,10.5 C20.0195312,10.6953135 19.9544277,10.8645826 19.8242188,11.0078125 L17.1679688,13.6445312 C17.0247389,13.7877611 16.8554697,13.859375 16.6601562,13.859375 C16.4648428,13.859375 16.2988288,13.7910163 16.1621094,13.6542969 C16.0253899,13.5175774 15.9570312,13.3515635 15.9570312,13.15625 C15.9570312,12.9609365 16.0286451,12.7916674 16.171875,12.6484375 L17.6171875,11.203125 L8.22265625,11.203125 C8.02734277,11.203125 7.86132881,11.1347663 7.72460938,10.9980469 C7.58788994,10.8613274 7.51953125,10.6953135 7.51953125,10.5 C7.51953125,10.3046865 7.58788994,10.1386726 7.72460938,10.0019531 C7.86132881,9.86523369 8.02734277,9.796875 8.22265625,9.796875 L17.6171875,9.796875 L16.171875,8.3515625 C16.0286451,8.20833262 15.9570312,8.03906348 15.9570312,7.84375 C15.9570312,7.64843652 16.0253899,7.48242256 16.1621094,7.34570312 C16.2988288,7.20898369 16.4648428,7.140625 16.6601562,7.140625 C16.8554697,7.140625 17.0247389,7.21223887 17.1679688,7.35546875 L19.8242188,9.9921875 Z"></path>
        </g>
    </g>
</svg>